<svg xmlns="http://www.w3.org/2000/svg" width="228.43" height="44.437"><path fill-rule="evenodd" clip-rule="evenodd" d="M45.279 18.331l17.807.055-3.727 6.171H23.91l3.765-6.226h8.152V.834L9.483 44.437H0L26.967 0h18.312v18.331zm-9.624 14.307H19.646l3.656-6.23 35.409.061-3.608 6.17h-10.05v11.686h-9.397V32.638zM78.232 1.193h14.011l5.441 19.532h-9.463l-.66-3.18H80.98l-1.128 3.18h-9.288l7.668-19.532zm3.707 11.746h4.123l-2.037-6.052-2.086 6.052zm30.669 8.325c-4.493 0-7.733-1.019-10.012-2.698-2.095-1.735-3.224-4.371-3.224-7.786 0-3.658 1.129-6.117 3.043-7.666 2.04-1.619 5.452-2.401 10.192-2.401 1.546 0 2.993.121 4.193.367 1.135.112 2.511.415 4.181.774l.369 6.653c-1.378-.428-2.704-.907-3.593-1.077-.957-.125-2.276-.309-3.604-.309-2.087 0-3.458.479-4.372 1.08-.778.785-1.126 1.915-1.126 3.476 0 1.372.174 2.33.712 2.932.66.784 1.557 1.144 2.699 1.144h.17c.247 0 .371-.125.61-.125v-4.725h8.504v8.261c-2.037 1.312-4.975 2.1-8.742 2.1m17.537-20.071h14.014l5.525 19.532h-9.524l-.619-3.18h-6.626l-1.159 3.18h-9.204l7.593-19.532zm4.268 11.746h4.124L136.5 6.888l-2.087 6.051zm18.564 7.786V1.193h9.038V14.61h7.958v6.115h-16.996zm19.987-19.532h9.182v19.532h-9.182V1.193zm18.221 6.113h-6.048V1.193h21.026v6.112h-5.87v13.419h-9.108V7.306zm17.431 13.419V1.193h19.813v6.112h-10.532v1.851h10.532v4.559h-10.532v2.455h10.532v4.555h-19.813z"/><path d="M68.505 30.716c.418.232 1.099.473 1.765.473.729 0 1.138-.326 1.138-.838 0-.457-.342-.738-1.192-1.053-1.172-.449-1.957-1.145-1.957-2.26 0-1.287 1.026-2.26 2.677-2.26.81 0 1.387.17 1.802.383l-.352 1.363a3.178 3.178 0 00-1.477-.354c-.678 0-1.018.344-1.018.723 0 .484.379.699 1.315 1.08 1.244.498 1.819 1.193 1.819 2.264 0 1.279-.903 2.348-2.851 2.348-.791 0-1.604-.23-1.994-.473l.325-1.396zm7.966-5.818v2.92h2.636v-2.92h1.606v7.57h-1.606v-3.156h-2.636v3.156H74.88v-7.57zm9.372 7.687c-2.074 0-3.318-1.695-3.318-3.844 0-2.273 1.378-3.963 3.437-3.963 2.183 0 3.37 1.736 3.37 3.822 0 2.49-1.396 3.984-3.476 3.984h-.013zm.094-1.351c1.072 0 1.698-1.094 1.698-2.574 0-1.361-.617-2.533-1.698-2.533-1.108 0-1.724 1.15-1.724 2.561 0 1.438.64 2.547 1.711 2.547h.013zm6.267 1.236l-1.674-7.572h1.711l.533 3.107c.149.908.306 1.889.423 2.662h.004c.112-.83.297-1.738.468-2.68l.6-3.09h1.707l.549 3.195c.172.877.289 1.691.394 2.525h.024c.103-.834.248-1.719.406-2.631l.562-3.09h1.63l-1.825 7.572h-1.735l-.587-3.258a22.38 22.38 0 01-.342-2.34h-.029c-.111.854-.219 1.574-.401 2.34l-.668 3.258h-1.75zm13.138-3.203h-2.616v1.793h2.914v1.41h-4.504v-7.572h4.349V26.3h-2.759v1.576h2.616zm2.153-4.26c.508-.104 1.268-.164 2.128-.164 1.045 0 1.776.164 2.271.605.434.355.67.889.67 1.584 0 .955-.641 1.611-1.241 1.852v.029c.481.217.768.713.94 1.408.222.867.43 1.846.573 2.148h-1.647c-.102-.213-.271-.84-.477-1.766-.213-.951-.513-1.207-1.171-1.215h-.465v2.98h-1.581v-7.461zm1.581 3.252h.626c.796 0 1.263-.428 1.263-1.094 0-.684-.442-1.041-1.174-1.041-.378 0-.598.016-.715.055v2.08zm12.755 4.211c-.13-.172-.287-.342-.444-.543-.47.383-1.107.66-1.945.66-1.708 0-2.466-1.068-2.466-2.137 0-1.012.534-1.719 1.333-2.189v-.027a2.414 2.414 0 01-.537-1.467c0-.961.719-1.99 2.126-1.99 1.101 0 1.919.684 1.919 1.775 0 .756-.426 1.408-1.385 1.936v.039c.396.488.825 1.041 1.172 1.426.278-.469.503-1.166.593-1.85h1.439c-.212 1.154-.55 2.131-1.178 2.881.394.48.795.973 1.242 1.486h-1.869zm-2.153-1.111c.405 0 .754-.17.965-.385a41.445 41.445 0 01-1.603-1.859c-.304.227-.562.553-.562 1.051 0 .652.453 1.193 1.187 1.193h.013zm.17-5.514c-.406 0-.626.367-.626.766 0 .383.144.725.467 1.094.529-.381.786-.67.786-1.109 0-.363-.195-.75-.615-.75h-.012zm8.237-.84c.42-.086 1.253-.16 2.06-.16.971 0 1.582.104 2.096.424.48.275.834.803.834 1.496 0 .656-.367 1.281-1.147 1.602v.021c.794.227 1.411.887 1.411 1.863 0 .697-.306 1.238-.733 1.607-.534.439-1.392.68-2.782.68a11.57 11.57 0 01-1.737-.111v-7.422zm1.583 2.885h.521c.848 0 1.291-.369 1.291-.926 0-.572-.402-.879-1.122-.879-.364 0-.563.027-.69.055v1.75zm0 3.36c.16.039.351.039.614.039.718 0 1.356-.305 1.356-1.107 0-.758-.639-1.066-1.424-1.066h-.547v2.134zm7.096-.729l-.488 1.949h-1.646l2.14-7.572h2.104l2.193 7.572h-1.727l-.542-1.949h-2.034zm1.809-1.279l-.446-1.607c-.116-.443-.247-1.023-.353-1.455h-.039c-.09.449-.208 1.016-.313 1.455l-.432 1.607h1.583zm4.621-2.905h-1.908v-1.439h5.433v1.439h-1.932v6.133h-1.593zm6.738-1.439v2.92h2.634v-2.92h1.605v7.57h-1.605v-3.156h-2.634v3.156h-1.594v-7.57zm13.46 4.369h-2.599v1.793h2.898v1.41h-4.505v-7.572h4.38V26.3h-2.773v1.576h2.599zm2.157 3.203v-7.572h1.861l1.481 2.775c.416.799.823 1.738 1.148 2.594h.028c-.096-1-.135-2.021-.135-3.172v-2.197h1.464v7.572h-1.672l-1.515-2.93c-.42-.809-.901-1.779-1.227-2.668h-.042c.042 1.014.066 2.082.066 3.309v2.289h-1.457zm13.179-.205c-.292.146-.962.322-1.817.322-2.448 0-3.697-1.637-3.697-3.801 0-2.588 1.725-4.01 3.865-4.01.823 0 1.448.174 1.751.334l-.343 1.344a3.263 3.263 0 00-1.355-.275c-1.257 0-2.245.814-2.245 2.508 0 1.521.854 2.475 2.257 2.475.51 0 1.03-.1 1.359-.244l.225 1.347zm1.814-7.367h1.606v6.135h2.802v1.435h-4.408zm8.719 7.687c-2.102 0-3.331-1.695-3.331-3.844 0-2.273 1.357-3.963 3.448-3.963 2.164 0 3.343 1.736 3.343 3.822 0 2.49-1.392 3.984-3.447 3.984h-.013zm.062-1.351c1.083 0 1.697-1.094 1.697-2.574 0-1.361-.587-2.533-1.697-2.533-1.096 0-1.723 1.15-1.723 2.561 0 1.438.641 2.547 1.711 2.547h.012zm5.264-.518c.419.232 1.098.473 1.767.473.739 0 1.131-.326 1.131-.838 0-.457-.338-.738-1.186-1.053-1.176-.449-1.959-1.145-1.959-2.26 0-1.287 1.031-2.26 2.672-2.26.824 0 1.388.17 1.806.383l-.342 1.363a3.273 3.273 0 00-1.483-.354c-.683 0-1.021.344-1.021.723 0 .484.382.699 1.319 1.08 1.237.498 1.825 1.193 1.825 2.264 0 1.279-.911 2.348-2.857 2.348-.797 0-1.604-.23-1.998-.473l.326-1.396zm7.953-5.818v4.344c0 1.314.482 1.979 1.281 1.979.85 0 1.302-.625 1.302-1.979v-4.344h1.592v4.242c0 2.334-1.08 3.445-2.936 3.445-1.773 0-2.833-1.066-2.833-3.471v-4.217h1.594zm6.315.109c.512-.104 1.271-.164 2.135-.164 1.054 0 1.793.164 2.297.605.43.355.663.889.663 1.584 0 .955-.639 1.611-1.264 1.852v.029c.506.217.771.713.952 1.408.215.867.428 1.846.557 2.148h-1.625c-.101-.213-.291-.84-.486-1.766-.196-.951-.496-1.207-1.164-1.215h-.482v2.98h-1.582v-7.461zm1.583 3.252h.639c.797 0 1.281-.428 1.281-1.094 0-.684-.441-1.041-1.175-1.041-.407 0-.626.016-.745.055v2.08zm9.606 1.008h-2.596v1.793h2.919v1.41h-4.51v-7.572h4.348V26.3h-2.757v1.576h2.596zm2.213 1.449c.416.232 1.097.473 1.763.473.728 0 1.137-.326 1.137-.838 0-.457-.339-.738-1.188-1.053-1.175-.449-1.958-1.145-1.958-2.26 0-1.287 1.024-2.26 2.671-2.26.815 0 1.386.17 1.806.383l-.352 1.363a3.185 3.185 0 00-1.477-.354c-.679 0-1.018.344-1.018.723 0 .484.379.699 1.315 1.08 1.241.498 1.819 1.193 1.819 2.264 0 1.279-.9 2.348-2.848 2.348-.797 0-1.604-.23-1.996-.473l.326-1.396z"/></svg>